<svg id="visual" viewBox="0 0 960 540" width="960" height="540" xmlns="http://www.w3.org/2000/svg" xmlns:xlink="http://www.w3.org/1999/xlink" version="1.1"><rect x="0" y="0" width="960" height="540" fill="#1a1a1a"></rect><defs><linearGradient id="grad1_0" x1="43.8%" y1="100%" x2="100%" y2="0%"><stop offset="14.444444444444446%" stop-color="#1a1a1a" stop-opacity="1"></stop><stop offset="85.55555555555554%" stop-color="#1a1a1a" stop-opacity="1"></stop></linearGradient></defs><defs><linearGradient id="grad2_0" x1="0%" y1="100%" x2="56.3%" y2="0%"><stop offset="14.444444444444446%" stop-color="#1a1a1a" stop-opacity="1"></stop><stop offset="85.55555555555554%" stop-color="#1a1a1a" stop-opacity="1"></stop></linearGradient></defs><g transform="translate(960, 540)"><path d="M-540 0C-527.8 -97.8 -515.6 -195.6 -467.7 -270C-419.7 -344.4 -335.9 -395.4 -252 -436.5C-168.1 -477.6 -84 -508.8 0 -540L0 0Z" fill="#8b0000"></path></g><g transform="translate(0, 0)"><path d="M540 0C528.1 98.4 516.3 196.8 467.7 270C419 343.2 333.6 391.3 249.5 432.1C165.4 473 82.7 506.5 0 540L0 0Z" fill="#8b0000"></path></g></svg>