<svg id="visual" viewBox="0 0 960 540" width="960" height="540" xmlns="http://www.w3.org/2000/svg" xmlns:xlink="http://www.w3.org/1999/xlink" version="1.1"><rect x="0" y="0" width="960" height="540" fill="#1a1a1a"></rect><path d="M0 320L26.7 341.8C53.3 363.7 106.7 407.3 160 411.7C213.3 416 266.7 381 320 350.8C373.3 320.7 426.7 295.3 480 287.2C533.3 279 586.7 288 640 292.2C693.3 296.3 746.7 295.7 800 308.8C853.3 322 906.7 349 933.3 362.5L960 376L960 541L933.3 541C906.7 541 853.3 541 800 541C746.7 541 693.3 541 640 541C586.7 541 533.3 541 480 541C426.7 541 373.3 541 320 541C266.7 541 213.3 541 160 541C106.7 541 53.3 541 26.7 541L0 541Z" fill="#8b0000" stroke-linecap="round" stroke-linejoin="miter"></path></svg>