<svg id="visual" viewBox="0 0 960 300" width="960" height="300" xmlns="http://www.w3.org/2000/svg" xmlns:xlink="http://www.w3.org/1999/xlink" version="1.1"><rect x="0" y="0" width="960" height="300" fill="#1a1a1a"></rect><path d="M0 181L13.3 187.7C26.7 194.3 53.3 207.7 80 208.5C106.7 209.3 133.3 197.7 160 195C186.7 192.3 213.3 198.7 240 196.2C266.7 193.7 293.3 182.3 320 185.8C346.7 189.3 373.3 207.7 400 212.7C426.7 217.7 453.3 209.3 480 212.7C506.7 216 533.3 231 560 225C586.7 219 613.3 192 640 179.5C666.7 167 693.3 169 720 178.2C746.7 187.3 773.3 203.7 800 215.8C826.7 228 853.3 236 880 228.7C906.7 221.3 933.3 198.7 946.7 187.3L960 176L960 301L946.7 301C933.3 301 906.7 301 880 301C853.3 301 826.7 301 800 301C773.3 301 746.7 301 720 301C693.3 301 666.7 301 640 301C613.3 301 586.7 301 560 301C533.3 301 506.7 301 480 301C453.3 301 426.7 301 400 301C373.3 301 346.7 301 320 301C293.3 301 266.7 301 240 301C213.3 301 186.7 301 160 301C133.3 301 106.7 301 80 301C53.3 301 26.7 301 13.3 301L0 301Z" fill="#8b0000" stroke-linecap="round" stroke-linejoin="miter"></path></svg>